<?xml version="1.0" encoding="UTF-8"?>
<svg width="24px" height="24px" viewBox="0 0 24 24" version="1.1" xmlns="http://www.w3.org/2000/svg">
    <path d="M17.472,14.382 C17.222,14.382 16.672,14.132 15.622,13.682 C15.372,13.557 15.172,13.482 15.022,13.482 C14.772,13.482 14.572,13.632 14.272,13.982 C13.972,14.332 13.722,14.632 13.472,14.932 C13.322,15.132 13.122,15.232 12.922,15.232 C12.822,15.232 12.622,15.182 12.422,15.132 C12.222,15.032 12.022,14.982 11.922,14.932 C10.572,14.282 9.372,13.432 8.422,12.382 C7.472,11.332 6.722,10.132 6.172,8.832 C6.072,8.632 6.022,8.432 6.022,8.232 C6.022,8.032 6.122,7.832 6.322,7.682 C6.622,7.432 6.922,7.182 7.272,6.882 C7.622,6.582 7.772,6.382 7.772,6.132 C7.772,5.982 7.697,5.782 7.572,5.532 C7.122,4.482 6.872,3.932 6.872,3.682 C6.872,3.582 6.847,3.457 6.797,3.332 C6.747,3.207 6.722,3.107 6.722,3.057 C6.422,2.257 5.622,1.832 4.322,1.832 C3.972,1.832 3.622,1.907 3.322,2.057 C2.472,2.407 1.747,3.032 1.197,3.932 C0.647,4.832 0.372,5.782 0.372,6.832 C0.372,7.632 0.497,8.407 0.747,9.132 C0.997,9.857 1.347,10.607 1.797,11.332 C2.247,12.057 2.747,12.757 3.297,13.382 C3.847,14.007 4.547,14.707 5.422,15.482 C7.122,17.032 8.997,18.232 11.022,19.132 C13.047,20.032 14.972,20.482 16.722,20.482 C17.772,20.482 18.722,20.207 19.622,19.657 C20.522,19.107 21.147,18.382 21.497,17.532 C21.647,17.232 21.722,16.882 21.722,16.532 C21.722,15.232 21.297,14.432 20.497,14.132 C20.447,14.132 20.347,14.107 20.222,14.057 C20.097,14.007 19.972,13.982 19.872,13.982 L17.472,14.382 Z M12.072,0 C14.622,0 16.897,0.857 18.897,2.557 C20.897,4.257 21.897,6.357 21.897,8.832 C21.897,11.307 20.897,13.407 18.897,15.107 C16.897,16.807 14.622,17.657 12.072,17.657 C11.322,17.657 10.572,17.582 9.822,17.432 L5.822,21.432 C5.622,21.632 5.372,21.732 5.072,21.732 C4.922,21.732 4.797,21.707 4.672,21.657 L4.422,21.432 C4.172,21.182 4.072,20.882 4.072,20.532 L4.072,16.532 L3.897,16.432 C1.647,15.182 0.247,13.482 -0.303,11.332 C-0.853,9.182 -0.628,7.132 0.372,5.182 C1.372,3.232 2.897,1.732 4.922,0.682 C6.947,-0.368 9.172,-0.65 11.572,-0.15 L12.072,0 Z" fill="currentColor"></path>
</svg> 